<?xml version="1.0" encoding="UTF-8" standalone="no"?>
<!DOCTYPE svg PUBLIC "-//W3C//DTD SVG 1.1//EN"
 "http://www.w3.org/Graphics/SVG/1.1/DTD/svg11.dtd">
<!-- Generated by graphviz version 2.38.0 (20140413.2041)
 -->
<!-- Title: G Pages: 1 -->
<svg width="517pt" height="754pt"
 viewBox="0.00 0.00 516.68 754.00" xmlns="http://www.w3.org/2000/svg" xmlns:xlink="http://www.w3.org/1999/xlink">
<g id="graph0" class="graph" transform="scale(1 1) rotate(0) translate(4 750)">
<title>G</title>
<polygon fill="white" stroke="none" points="-4,4 -4,-750 512.679,-750 512.679,4 -4,4"/>
<g id="clust1" class="cluster"><title>cluster_Global</title>
<path fill="none" stroke="gray" d="M170.786,-98C170.786,-98 488.679,-98 488.679,-98 494.679,-98 500.679,-104 500.679,-110 500.679,-110 500.679,-726 500.679,-726 500.679,-732 494.679,-738 488.679,-738 488.679,-738 170.786,-738 170.786,-738 164.786,-738 158.786,-732 158.786,-726 158.786,-726 158.786,-110 158.786,-110 158.786,-104 164.786,-98 170.786,-98"/>
<text text-anchor="middle" x="329.733" y="-725.2" font-family="Times,serif" font-size="11.00" fill="gray">Global</text>
</g>
<g id="clust2" class="cluster"><title>cluster_\ShSo</title>
<path fill="none" stroke="gray" d="M178.786,-106C178.786,-106 480.679,-106 480.679,-106 486.679,-106 492.679,-112 492.679,-118 492.679,-118 492.679,-698 492.679,-698 492.679,-704 486.679,-710 480.679,-710 480.679,-710 178.786,-710 178.786,-710 172.786,-710 166.786,-704 166.786,-698 166.786,-698 166.786,-118 166.786,-118 166.786,-112 172.786,-106 178.786,-106"/>
<text text-anchor="middle" x="329.733" y="-697.2" font-family="Times,serif" font-size="11.00" fill="gray">ShSo</text>
</g>
<g id="clust3" class="cluster"><title>cluster_\ShSo\Net</title>
<path fill="none" stroke="gray" d="M186.786,-114C186.786,-114 472.679,-114 472.679,-114 478.679,-114 484.679,-120 484.679,-126 484.679,-126 484.679,-670 484.679,-670 484.679,-676 478.679,-682 472.679,-682 472.679,-682 186.786,-682 186.786,-682 180.786,-682 174.786,-676 174.786,-670 174.786,-670 174.786,-126 174.786,-126 174.786,-120 180.786,-114 186.786,-114"/>
<text text-anchor="middle" x="329.733" y="-669.2" font-family="Times,serif" font-size="11.00" fill="gray">Net</text>
</g>
<g id="clust4" class="cluster"><title>cluster_\ShSo\Net\Gearman</title>
<path fill="none" stroke="gray" d="M194.786,-122C194.786,-122 464.679,-122 464.679,-122 470.679,-122 476.679,-128 476.679,-134 476.679,-134 476.679,-642 476.679,-642 476.679,-648 470.679,-654 464.679,-654 464.679,-654 194.786,-654 194.786,-654 188.786,-654 182.786,-648 182.786,-642 182.786,-642 182.786,-134 182.786,-134 182.786,-128 188.786,-122 194.786,-122"/>
<text text-anchor="middle" x="329.733" y="-641.2" font-family="Times,serif" font-size="11.00" fill="gray">Gearman</text>
</g>
<g id="clust5" class="cluster"><title>cluster_\ShSo\Net\Gearman\Job</title>
<path fill="none" stroke="gray" d="M380.679,-500C380.679,-500 456.679,-500 456.679,-500 462.679,-500 468.679,-506 468.679,-512 468.679,-512 468.679,-614 468.679,-614 468.679,-620 462.679,-626 456.679,-626 456.679,-626 380.679,-626 380.679,-626 374.679,-626 368.679,-620 368.679,-614 368.679,-614 368.679,-512 368.679,-512 368.679,-506 374.679,-500 380.679,-500"/>
<text text-anchor="middle" x="418.679" y="-613.2" font-family="Times,serif" font-size="11.00" fill="gray">Job</text>
</g>
<!-- \\ShSo\\Net\\Gearman\\Job\\Common -->
<g id="node1" class="node"><title>\\ShSo\\Net\\Gearman\\Job\\Common</title>
<polygon fill="none" stroke="black" points="460.679,-598 376.679,-598 376.679,-562 460.679,-562 460.679,-598"/>
<text text-anchor="start" x="384.679" y="-583.2" font-family="Courier,monospace" font-size="11.00">«abstract»</text>
<text text-anchor="start" x="398.179" y="-571.2" font-family="Courier,monospace" font-size="11.00">Common</text>
</g>
<!-- \\ShSo\\Net\\Gearman\\Job\\Exception -->
<g id="node2" class="node"><title>\\ShSo\\Net\\Gearman\\Job\\Exception</title>
<polygon fill="none" stroke="black" points="457.179,-544 380.179,-544 380.179,-508 457.179,-508 457.179,-544"/>
<text text-anchor="middle" x="418.679" y="-523.2" font-family="Courier,monospace" font-size="11.00">Exception</text>
</g>
<!-- \\ShSo\\Net\\Gearman\\Exception -->
<g id="node7" class="node"><title>\\ShSo\\Net\\Gearman\\Exception</title>
<polygon fill="none" stroke="black" points="267.786,-544 190.786,-544 190.786,-508 267.786,-508 267.786,-544"/>
<text text-anchor="middle" x="229.286" y="-523.2" font-family="Courier,monospace" font-size="11.00">Exception</text>
</g>
<!-- \\ShSo\\Net\\Gearman\\Job\\Exception&#45;&gt;\\ShSo\\Net\\Gearman\\Exception -->
<g id="edge1" class="edge"><title>\\ShSo\\Net\\Gearman\\Job\\Exception&#45;&gt;\\ShSo\\Net\\Gearman\\Exception</title>
<path fill="none" stroke="black" d="M379.758,-526C350.452,-526 309.7,-526 278.149,-526"/>
<polygon fill="none" stroke="black" points="277.831,-522.5 267.831,-526 277.831,-529.5 277.831,-522.5"/>
</g>
<!-- \\ShSo\\Net\\Gearman\\Task -->
<g id="node3" class="node"><title>\\ShSo\\Net\\Gearman\\Task</title>
<polygon fill="none" stroke="black" points="445.679,-490 391.679,-490 391.679,-454 445.679,-454 445.679,-490"/>
<text text-anchor="middle" x="418.679" y="-469.2" font-family="Courier,monospace" font-size="11.00">Task</text>
</g>
<!-- \\ShSo\\Net\\Gearman\\Job -->
<g id="node4" class="node"><title>\\ShSo\\Net\\Gearman\\Job</title>
<polygon fill="none" stroke="black" points="460.679,-436 376.679,-436 376.679,-400 460.679,-400 460.679,-436"/>
<text text-anchor="start" x="384.679" y="-421.2" font-family="Courier,monospace" font-size="11.00">«abstract»</text>
<text text-anchor="start" x="408.179" y="-409.2" font-family="Courier,monospace" font-size="11.00">Job</text>
</g>
<!-- \\ShSo\\Net\\Gearman\\Connection -->
<g id="node5" class="node"><title>\\ShSo\\Net\\Gearman\\Connection</title>
<polygon fill="none" stroke="black" points="460.679,-382 376.679,-382 376.679,-346 460.679,-346 460.679,-382"/>
<text text-anchor="middle" x="418.679" y="-361.2" font-family="Courier,monospace" font-size="11.00">Connection</text>
</g>
<!-- \\ShSo\\Net\\Gearman\\Set -->
<g id="node6" class="node"><title>\\ShSo\\Net\\Gearman\\Set</title>
<polygon fill="none" stroke="black" points="445.679,-328 391.679,-328 391.679,-292 445.679,-292 445.679,-328"/>
<text text-anchor="middle" x="418.679" y="-307.2" font-family="Courier,monospace" font-size="11.00">Set</text>
</g>
<!-- \\IteratorAggregate -->
<g id="node11" class="node"><title>\\IteratorAggregate</title>
<ellipse fill="none" stroke="black" cx="229.286" cy="-72" rx="75.2868" ry="18"/>
<text text-anchor="middle" x="229.286" y="-68.3" font-family="Times,serif" font-size="14.00" fill="gray">\IteratorAggregate</text>
</g>
<!-- \\ShSo\\Net\\Gearman\\Set&#45;&gt;\\IteratorAggregate -->
<g id="edge2" class="edge"><title>\\ShSo\\Net\\Gearman\\Set&#45;&gt;\\IteratorAggregate</title>
<path fill="none" stroke="black" stroke-dasharray="1,5" d="M391.631,-299.899C383.419,-295.686 374.882,-290.092 368.679,-283 316.898,-223.793 354.96,-178.488 304.679,-118 296.484,-108.141 285.602,-99.7813 274.698,-93.0047"/>
<polygon fill="none" stroke="black" points="276.397,-89.9437 265.999,-87.911 272.86,-95.9843 276.397,-89.9437"/>
</g>
<!-- \\Countable -->
<g id="node12" class="node"><title>\\Countable</title>
<ellipse fill="none" stroke="black" cx="229.286" cy="-18" rx="49.2915" ry="18"/>
<text text-anchor="middle" x="229.286" y="-14.3" font-family="Times,serif" font-size="14.00" fill="gray">\Countable</text>
</g>
<!-- \\ShSo\\Net\\Gearman\\Set&#45;&gt;\\Countable -->
<g id="edge3" class="edge"><title>\\ShSo\\Net\\Gearman\\Set&#45;&gt;\\Countable</title>
<path fill="none" stroke="black" stroke-dasharray="1,5" d="M391.435,-300.401C383.11,-296.203 374.552,-290.491 368.679,-283 301.095,-196.8 378.753,-125.691 304.679,-45 298.802,-38.598 291.288,-33.7114 283.305,-29.982"/>
<polygon fill="none" stroke="black" points="284.369,-26.6366 273.787,-26.1143 281.733,-33.1216 284.369,-26.6366"/>
</g>
<!-- \\Exception -->
<g id="node13" class="node"><title>\\Exception</title>
<ellipse fill="none" stroke="black" cx="40.9464" cy="-526" rx="40.8928" ry="18"/>
<text text-anchor="middle" x="40.9464" y="-522.3" font-family="Times,serif" font-size="14.00" fill="gray">xception</text>
</g>
<!-- \\ShSo\\Net\\Gearman\\Exception&#45;&gt;\\Exception -->
<g id="edge4" class="edge"><title>\\ShSo\\Net\\Gearman\\Exception&#45;&gt;\\Exception</title>
<path fill="none" stroke="black" d="M190.577,-526C162.296,-526 123.295,-526 92.3407,-526"/>
<polygon fill="none" stroke="black" points="92.1786,-522.5 82.1785,-526 92.1785,-529.5 92.1786,-522.5"/>
</g>
<!-- \\ShSo\\Net\\Gearman\\Client -->
<g id="node8" class="node"><title>\\ShSo\\Net\\Gearman\\Client</title>
<polygon fill="none" stroke="black" points="447.179,-274 390.179,-274 390.179,-238 447.179,-238 447.179,-274"/>
<text text-anchor="middle" x="418.679" y="-253.2" font-family="Courier,monospace" font-size="11.00">Client</text>
</g>
<!-- \\ShSo\\Net\\Gearman\\Worker -->
<g id="node9" class="node"><title>\\ShSo\\Net\\Gearman\\Worker</title>
<polygon fill="none" stroke="black" points="447.179,-220 390.179,-220 390.179,-184 447.179,-184 447.179,-220"/>
<text text-anchor="middle" x="418.679" y="-199.2" font-family="Courier,monospace" font-size="11.00">Worker</text>
</g>
<!-- \\ShSo\\Net\\Gearman\\Manager -->
<g id="node10" class="node"><title>\\ShSo\\Net\\Gearman\\Manager</title>
<polygon fill="none" stroke="black" points="450.679,-166 386.679,-166 386.679,-130 450.679,-130 450.679,-166"/>
<text text-anchor="middle" x="418.679" y="-145.2" font-family="Courier,monospace" font-size="11.00">Manager</text>
</g>
</g>
</svg>
